<svg xmlns="http://www.w3.org/2000/svg" width="135" height="40" viewBox="0 0 135 40"><defs><style>.a{fill:#80b4d6;}.b{fill:#fff;}</style></defs><g transform="translate(0)"><path class="a" d="M-116.5,2618h-90l-22.5-40H-94l-22.5,40Z" transform="translate(229 -2578)"/><path class="b" d="M7.852,6.126H4.537V-7.72L1.3-6.387V-9.326l6.2-2.7h.35Zm14.7-7.5A10.693,10.693,0,0,1,21.27,4.383a4.086,4.086,0,0,1-3.648,1.992A4.1,4.1,0,0,1,14,4.439a10.31,10.31,0,0,1-1.325-5.547V-4.532a10.67,10.67,0,0,1,1.272-5.734A4.086,4.086,0,0,1,17.6-12.252a4.1,4.1,0,0,1,3.654,1.967,10.472,10.472,0,0,1,1.3,5.616ZM19.233-5.043a9.8,9.8,0,0,0-.4-3.212q-.4-1.071-1.237-1.071-1.576,0-1.634,3.922v4.52a9.868,9.868,0,0,0,.4,3.262q.4,1.071,1.255,1.071.805,0,1.2-1a9.28,9.28,0,0,0,.414-3.069Z" transform="translate(54.947 22.779)"/></g></svg>