<svg xmlns="http://www.w3.org/2000/svg" width="90.002" height="40.001" viewBox="0 0 90.002 40.001"><defs><style>.a{fill:#7299d0;}.b{fill:#fff;}</style></defs><g transform="translate(0)"><path class="a" d="M-152.833,2634h-45l-22.5-40h90l-22.5,40Z" transform="translate(220.333 -2593.999)"/><path class="b" d="M3.6-4.277H5.1a1.378,1.378,0,0,0,1.258-.639,3.177,3.177,0,0,0,.4-1.705,2.666,2.666,0,0,0-.412-1.588,1.3,1.3,0,0,0-1.1-.568,1.277,1.277,0,0,0-1.06.539,2.174,2.174,0,0,0-.412,1.359H.666a4.934,4.934,0,0,1,.577-2.4,4.181,4.181,0,0,1,1.615-1.658,4.53,4.53,0,0,1,2.3-.6,4.578,4.578,0,0,1,3.461,1.3A4.922,4.922,0,0,1,9.873-6.668a4.261,4.261,0,0,1-.566,2.15A3.973,3.973,0,0,1,7.818-3,3.5,3.5,0,0,1,9.5-1.453,5.072,5.072,0,0,1,10.06.984,4.955,4.955,0,0,1,8.7,4.629,4.793,4.793,0,0,1,5.138,6,4.38,4.38,0,0,1,1.8,4.647,4.964,4.964,0,0,1,.523,1.09H3.633a2.545,2.545,0,0,0,.45,1.535,1.361,1.361,0,0,0,1.143.621,1.494,1.494,0,0,0,1.269-.633A2.779,2.779,0,0,0,6.961.926q0-2.52-1.835-2.531H3.6Z" transform="translate(38.852 21.641)"/></g></svg>