<svg xmlns="http://www.w3.org/2000/svg" width="108.971" height="135.485" viewBox="0 0 108.971 135.485"><defs><style>.a{fill:#195387;fill-rule:evenodd;}.b,.c{stroke:none;}.c{fill:#fff;}</style></defs><g class="a" transform="translate(94.485 9) rotate(180)"><path class="b" d="M 57 6 L 54 6 L 26 6 L 23 6 L 23 3 L 23 -75 L 0 -75 L -7.242636203765869 -75 L -2.12132716178894 -80.12133026123047 L 37.8786735534668 -120.1213302612305 L 40 -122.2426376342773 L 42.1213264465332 -120.1213302612305 L 82.12133026123047 -80.12133026123047 L 87.24263763427734 -75 L 80 -75 L 57 -75 L 57 3 L 57 6 Z"/><path class="c" d="M 54 3 L 54 -78 L 80 -78 L 40 -118 L 7.105427357601002e-15 -78 L 26 -78 L 26 3 L 54 3 M 60 9 L 54 9 L 26 9 L 20 9 L 20 3 L 20 -72 L 7.105427357601002e-15 -72 L -14.48529148101807 -72 L -4.242645740509033 -82.24264526367188 L 35.75735473632813 -122.2426452636719 L 40 -126.4852905273438 L 44.24264526367188 -122.2426452636719 L 84.24264526367188 -82.24264526367188 L 94.48529052734375 -72 L 80 -72 L 60 -72 L 60 3 L 60 9 Z"/></g></svg>