<svg xmlns="http://www.w3.org/2000/svg" width="108.971" height="90.485" viewBox="0 0 108.971 90.485"><defs><style>.a{fill:#2272ba;fill-rule:evenodd;}.b,.c{stroke:none;}.c{fill:#fff;}</style></defs><g class="a" transform="translate(94.485 -6) rotate(180)"><path class="b" d="M 57 -9 L 54 -9 L 26 -9 L 23 -9 L 23 -12 L 23 -45 L 0 -45 L -7.242640018463135 -45 L -2.121320009231567 -50.12131881713867 L 37.87868118286133 -90.12132263183594 L 40 -92.24263763427734 L 42.12131881713867 -90.12132263183594 L 82.12132263183594 -50.12131881713867 L 87.24263763427734 -45 L 80 -45 L 57 -45 L 57 -12 L 57 -9 Z"/><path class="c" d="M 54 -12 L 54 -48 L 80 -48 L 40 -88 L 0 -48 L 26 -48 L 26 -12 L 54 -12 M 60 -6 L 54 -6 L 26 -6 L 20 -6 L 20 -12 L 20 -42 L 0 -42 L -14.48528289794922 -42 L -4.24263334274292 -52.24263381958008 L 35.75736618041992 -92.24263000488281 L 40 -96.48528289794922 L 44.24263381958008 -92.24263000488281 L 84.24263000488281 -52.24263381958008 L 94.48528289794922 -42 L 80 -42 L 60 -42 L 60 -12 L 60 -6 Z"/></g></svg>