<svg xmlns="http://www.w3.org/2000/svg" width="23.995" height="32" viewBox="0 0 23.995 32"><defs><style>.a{fill:#fff;}</style></defs><path class="a" d="M23.114,6.024,17.872.781A3,3,0,0,0,15.753-.1H3A3.01,3.01,0,0,0,0,2.906V28.9a3,3,0,0,0,3,3H21a3,3,0,0,0,3-3V8.148a3.014,3.014,0,0,0-.881-2.125ZM20.752,7.9H16V3.149ZM3,28.9V2.906H13V9.4a1.5,1.5,0,0,0,1.5,1.5H21v18Zm15.634-8.979c-.762-.75-2.937-.544-4.024-.406a5.419,5.419,0,0,1-2.3-2.893,7.859,7.859,0,0,0,.337-3.5,1.393,1.393,0,0,0-2.662-.369,9,9,0,0,0,.437,4.193A50.178,50.178,0,0,1,8.211,21.6c-1.25.644-2.937,1.637-3.187,2.887-.206.987,1.625,3.449,4.755-1.95a30.981,30.981,0,0,1,4.274-1.256,8.314,8.314,0,0,0,3.487,1.062A1.444,1.444,0,0,0,18.634,19.921ZM6.255,24.783a7.493,7.493,0,0,1,1.9-2.187c-1.187,1.893-1.9,2.231-1.9,2.187Zm5.1-11.91c.462,0,.419,2.006.112,2.55A5.24,5.24,0,0,1,11.354,12.872ZM9.829,21.408a24.528,24.528,0,0,0,1.543-3.418,6.885,6.885,0,0,0,1.881,2.218A21.142,21.142,0,0,0,9.829,21.408Zm8.223-.312s-.312.375-2.331-.487C17.915,20.446,18.278,20.946,18.053,21.1Z" transform="translate(0 0.1)"/></svg>