<svg xmlns="http://www.w3.org/2000/svg" width="28" height="32" viewBox="0 0 28 32"><defs><style>.a{fill:#fff;opacity:0.3;}</style></defs><path class="a" d="M6.6,5.2v5.386a7.22,7.22,0,0,0-1.4-.136C2.205,10.45,0,12.642,0,16.2c0,2.832,3.034,3.563,4.924,4.732A15.381,15.381,0,0,1,7,22.547l.009.008.009.008C8.113,23.521,8.5,24.015,8.5,24.45v.167A2.114,2.114,0,0,0,8,26v4a1.908,1.908,0,0,0,1.8,2H24.2A1.908,1.908,0,0,0,26,30V26a2.114,2.114,0,0,0-.5-1.383V24.45c0-1.793,2.5-4.2,2.5-7.95V15.169c0-3.909-2.416-6.175-5.7-6.246a5.8,5.8,0,0,0-3.924-1A5.822,5.822,0,0,0,17,7.428V5.2a5.2,5.2,0,0,0-10.4,0Zm7.4,0v5.689a2.82,2.82,0,0,1,3.816.309,2.594,2.594,0,0,1,3.352.808C23.613,11.6,25,12.636,25,15.169V16.5c0,2.843-2.245,4.826-2.48,7.5H11.473c-.185-1.577-1.326-2.685-2.475-3.692a18.155,18.155,0,0,0-2.492-1.925C5.045,17.478,3,16.75,3,16.2c0-1.461.55-2.75,2.2-2.75,2.2,0,3.317,1.65,4.4,1.65V5.2A2.274,2.274,0,0,1,11.8,3,2.238,2.238,0,0,1,14,5.2Zm8,21.3A1.5,1.5,0,1,1,20.5,28,1.5,1.5,0,0,1,22,26.5Z"/></svg>