<svg xmlns="http://www.w3.org/2000/svg" width="44" height="44" viewBox="0 0 44 44"><defs><style>.a{fill:rgba(34,114,186,0);}.b{fill:#fff;}</style></defs><rect class="a" width="44" height="44"/><path class="b" d="M18.857,13.6A6.958,6.958,0,0,1,17.7,9.752C17.7,4.918,22.841,1,29.179,1S40.654,4.918,40.654,9.752c0,2.907-1.858,5.482-4.738,7.056l-2.02.905a13.989,13.989,0,0,1-4.717.791,15.5,15.5,0,0,1-3.959-.534.222.222,0,0,0-.059-.007c-.834,0-3.2,3.687-4.4,3.687a.484.484,0,0,1-.227-.053c-.782-.389-.588-3.746-.9-5.957H8.4V31.62H33.9V17.505l2.02-.905V32.128h.016L44,43,0,42.693l6.378-9.957V13.62H18.873l-.016-.023ZM7.862,34.128,3.64,40.719l36.365.253-5.079-6.844H7.862Zm22.7,6.364H13.542l2.722-5.581h11.58Zm-3.2-2-.771-1.581h-9.08l-.771,1.581ZM36.08,14.351a5.868,5.868,0,0,0,2.574-4.6,5.868,5.868,0,0,0-2.574-4.6A11.4,11.4,0,0,0,29.179,3a11.4,11.4,0,0,0-6.9,2.154,5.868,5.868,0,0,0-2.574,4.6,5.035,5.035,0,0,0,.973,2.987l.014.018.485.863a6.18,6.18,0,0,1,.428,2.02l.223,2.327c0,.079.009.163.014.25l.009-.011c1.19-1.3,2.05-2.243,3.311-2.243a2.274,2.274,0,0,1,.54.065l.009,0a13.541,13.541,0,0,0,3.469.473A11.639,11.639,0,0,0,33.7,15.64l.907-.367,1.313-.82.164-.1ZM24.1,10.079v0a1.35,1.35,0,1,1,1.35,1.35h0A1.353,1.353,0,0,1,24.1,10.079Zm4.05,0v0a1.35,1.35,0,1,1,1.35,1.35h0a1.355,1.355,0,0,1-1.348-1.347Zm4.05,0v0a1.351,1.351,0,1,1,1.351,1.351h0a1.355,1.355,0,0,1-1.35-1.347Z"/></svg>