<svg xmlns="http://www.w3.org/2000/svg" width="44" height="44" viewBox="0 0 44 44"><defs><style>.a{fill:rgba(34,114,186,0);}.b{fill:#fff;fill-rule:evenodd;}</style></defs><rect class="a" width="44" height="44"/><path class="b" d="M19.066,26.858c.468-2.762,2.528-3.468,4.713-3.442a13.021,13.021,0,0,1,5.271,1.422A14.185,14.185,0,0,1,34.621,23.7c4.793-.111,5.955,5.8,4.326,13.4-.059.274-.1.552-.153.826-.448,2.231-2.144,4.046-5.686,2.062a6.14,6.14,0,0,1-1.27-2.567,22.813,22.813,0,0,1,.141-5.447l2.051.184a29.882,29.882,0,0,0,.114,6.052c1.171.656,2.057,2.176,2.632-.689.735-3.661,1.712-8,.144-10.873-.96-1.759-5.141-.755-7.917.446,0,0-1.833-.837-2.359-1.021-.323-.113-.65-.215-.981-.3-.246-.064-.494-.121-.743-.167q-.261-.048-.523-.08A2.977,2.977,0,0,0,21.233,26.9c3.639.807,4.646,6.267,3.442,13.289q-.071.414-.153.825c-.448,2.232-2.144,4.046-5.686,2.062a6.14,6.14,0,0,1-1.27-2.566,22.769,22.769,0,0,1,.142-5.448l2.05.184a29.86,29.86,0,0,0,.115,6.053c1.17.655,2.057,2.175,2.632-.69.734-3.66,1.712-8,.144-10.873-.96-1.758-5.412-.613-8.2.606,0,0-5.327-2.233-6.982-.934-2.3,1.805-.979,8.649.128,12.326.256.849,2.365-.435,2.365-.435.814-1.384.386-3.635.145-5.8l-.031-.253,2.042-.256c.362,2.88.89,6.416-.82,7.885-1.151.989-5.433,3.409-6.419-4.6-.628-5.1-.76-11.537,4.646-11.472a12.718,12.718,0,0,1,4.959,1.275,16.6,16.6,0,0,1,4.584-1.221Zm-4.45-9.979A5.165,5.165,0,1,1,9.45,22.045a5.168,5.168,0,0,1,5.166-5.166Zm0,2.118a3.047,3.047,0,1,1-3.048,3.048A3.049,3.049,0,0,1,14.616,19Zm14.7-5.68a5.166,5.166,0,1,1-5.166,5.166A5.169,5.169,0,0,1,29.311,13.317Zm0,2.118a3.048,3.048,0,1,1-3.048,3.048A3.05,3.05,0,0,1,29.311,15.435ZM19.368,1.846A8.816,8.816,0,0,1,24.928,0c4.2,0,7.607,2.6,7.607,5.812s-3.406,5.813-7.607,5.813a18.279,18.279,0,0,1-2.3-.282A8.813,8.813,0,0,1,17.056,13.2a10.207,10.207,0,0,1-2.623-.356.175.175,0,0,0-.04,0c-.553,0-2.122,2.449-2.919,2.449a.319.319,0,0,1-.15-.036c-.687-.342-.237-4.153-.938-5.052A4.662,4.662,0,0,1,9.45,7.385c0-3.21,3.406-5.812,7.606-5.812a9.807,9.807,0,0,1,2.312.273ZM17.056,3.63c-3.007,0-5.548,1.72-5.548,3.755a2.613,2.613,0,0,0,.485,1.529l.015.019a4.72,4.72,0,0,1,.8,2.437,2.5,2.5,0,0,1,1.582-.59,2.232,2.232,0,0,1,.535.065l.009,0a8.256,8.256,0,0,0,2.119.292c3.008,0,5.549-1.719,5.549-3.755S20.064,3.63,17.056,3.63Zm7.075,5.894a7.338,7.338,0,0,0,.8.043c3.008,0,5.549-1.719,5.549-3.755s-2.541-3.755-5.549-3.755a7.345,7.345,0,0,0-3.228.724,5.472,5.472,0,0,1,2.963,4.6A4.621,4.621,0,0,1,24.131,9.524ZM13.03,7.8h0a.9.9,0,1,1,.9.895h0A.9.9,0,0,1,13.03,7.8Zm5.369,0h0a.9.9,0,1,1,.9.895h0a.9.9,0,0,1-.9-.894Zm-2.684,0h0a.9.9,0,1,1,.9.895h0a.9.9,0,0,1-.9-.894h0Z"/></svg>