<svg xmlns="http://www.w3.org/2000/svg" width="44.001" height="44" viewBox="0 0 44.001 44"><defs><style>.a{fill:rgba(34,114,186,0);}.b{fill:#fff;fill-rule:evenodd;}</style></defs><rect class="a" width="44" height="44"/><path class="b" d="M5.547,13.577c4.827.148,8.676,6.258,5.878,9.9-.963,1.252-2.534,1.654-.859,3.128,2.552,2.245,5.2,4.381,7.838,6.517,0,0-.231.573.428-.564,2.415-4,9.279,1.206,10.7,3.336,2.454,3.667-4.719,8.806-10.224,6.343A33.536,33.536,0,0,1,6,31.678c-2.546-3.6-5.16-7.5-5.907-11.5-.5-2.691,2.109-6.648,5.451-6.6Zm-.118,2c-1.923.039-3.281,2.418-3.421,3.493-.5,4.535,4.642,11.416,8.505,14.76,4.505,3.9,9.73,9.118,15.272,6.178,3.474-1.843,2.072-4.151-1.666-6.283-1.415-.808-2.752-1.711-4.044.787-.488.909-1.252,1.507-2.926.163A97.124,97.124,0,0,1,8.261,27.2c-2.173-2.36,3.617-4.788,1.592-8.344-.969-1.7-2.586-3.284-4.424-3.279ZM28.8,2C37.2,2,44,7.2,44,13.624S37.2,25.247,28.8,25.247a20.435,20.435,0,0,1-5.244-.71.333.333,0,0,0-.078-.009c-1.106,0-4.242,4.9-5.834,4.9a.644.644,0,0,1-.3-.07c-1.372-.686-.472-8.305-1.875-10.1A9.331,9.331,0,0,1,13.6,13.624C13.6,7.2,20.406,2,28.8,2Zm0,2a15.721,15.721,0,0,0-9.534,2.993A8.437,8.437,0,0,0,15.6,13.624,7.283,7.283,0,0,0,17.033,18l.014.018c1.009,1.3,1.189,3.339,1.366,6.551.029.522.066,1.206.119,1.838.39-.4.777-.826,1.038-1.113,1.519-1.667,2.523-2.768,3.909-2.768a2.317,2.317,0,0,1,.558.068l.011,0a18.522,18.522,0,0,0,4.753.648,15.721,15.721,0,0,0,9.533-2.993A8.436,8.436,0,0,0,42,13.624a8.437,8.437,0,0,0-3.667-6.631A15.721,15.721,0,0,0,28.8,4Zm3.15,9.984a1.766,1.766,0,1,1,3.5,0,1.766,1.766,0,1,1-3.5,0Zm-5.251,0a1.766,1.766,0,1,1,3.5,0,1.9,1.9,0,0,1-1.75,2A1.9,1.9,0,0,1,26.7,13.984Zm-5.249,0a1.9,1.9,0,0,1,1.75-2,1.9,1.9,0,0,1,1.75,2,1.9,1.9,0,0,1-1.75,2A1.9,1.9,0,0,1,21.451,13.984Z"/></svg>