<svg xmlns="http://www.w3.org/2000/svg" viewBox="0 0 406.5 85.2"><defs><style>.cls-1{fill:#222944;}</style></defs><title>Immunotec-logo-en</title><g id="Layer_2" data-name="Layer 2"><g id="Layer_1-2" data-name="Layer 1"><path class="cls-1" d="M62.7 50.9a3.3 3.3 0 0 0 4.7-.6l14.6-19a3.4 3.4 0 1 0-5.3-4.1l-14.6 19a3.4 3.4 0 0 0 .6 4.7zM94.3 1.8A6 6 0 0 0 90 0H6a6 6 0 0 0-6 6.1v73a6 6 0 0 0 6 6h33.7a6 6 0 0 0 6-6V43.2a4.3 4.3 0 0 0-.7-2.6L28.4 18.2a3.4 3.4 0 1 0-5.4 4l16 21.5v34.8H6.7V6.7h82.7v71.8H57V43.7l16-21.5a3.4 3.4 0 1 0-5.4-4L50.9 40.6a4.1 4.1 0 0 0-.7 2.6v35.9a6 6 0 0 0 6 6H90a6 6 0 0 0 6-6v-73a6.1 6.1 0 0 0-1.8-4.3zM14.6 26.5a3.4 3.4 0 0 0-.6 4.7l14.6 19a3.4 3.4 0 1 0 5.3-4.1l-14.6-19a3.3 3.3 0 0 0-4.7-.6zM108.8 49.5a3.8 3.8 0 0 1-3.7-3.8V9.8a3.8 3.8 0 0 1 7.6 0v36a3.9 3.9 0 0 1-3.9 3.7zM159.7 49.5a3.4 3.4 0 0 1-3.4-3.4v-17c0-3.3-1.4-5.5-5-5.5s-5.8 2.1-7.1 4v18.6a3.4 3.4 0 0 1-3.5 3.4 3.4 3.4 0 0 1-3.4-3.4V29.1c0-3.3-1.5-5.5-5.1-5.5s-5.7 2.1-7 4.1v18.5a3.4 3.4 0 0 1-3.5 3.4 3.4 3.4 0 0 1-3.4-3.4v-25a3.4 3.4 0 0 1 6.8 0v1.3a13.3 13.3 0 0 1 10-5c4.6 0 7.4 2.3 8.4 5.7a13.1 13.1 0 0 1 10.6-5.7c5.6 0 8.9 3.1 8.9 9.3v19.4a3.4 3.4 0 0 1-3.3 3.3zM209.9 49.5a3.4 3.4 0 0 1-3.4-3.4v-17c0-3.3-1.4-5.5-5-5.5s-5.8 2.1-7.1 4v18.6a3.4 3.4 0 0 1-3.5 3.4 3.4 3.4 0 0 1-3.4-3.4V29.1c0-3.3-1.5-5.5-5.1-5.5s-5.7 2.1-7 4.1v18.5a3.4 3.4 0 0 1-3.5 3.4 3.4 3.4 0 0 1-3.4-3.4v-25a3.4 3.4 0 0 1 6.8 0v1.3a13.3 13.3 0 0 1 10-5c4.6 0 7.4 2.3 8.4 5.7a13.1 13.1 0 0 1 10.6-5.7c5.6 0 8.9 3.1 8.9 9.3v19.4a3.4 3.4 0 0 1-3.3 3.3zM243.1 49.5a3.4 3.4 0 0 1-3.4-3.4v-1a14.8 14.8 0 0 1-10.9 4.9c-6.7 0-9.9-3.5-9.9-9.8v-19a3.4 3.4 0 0 1 6.8 0v16.4c0 4.7 2.4 6.2 6.1 6.2a10.3 10.3 0 0 0 7.9-4V21.2a3.4 3.4 0 0 1 6.8 0v25a3.4 3.4 0 0 1-3.4 3.3zM276.3 49.5a3.4 3.4 0 0 1-3.4-3.4V29.9c0-4.7-2.4-6.3-6.2-6.3a9.9 9.9 0 0 0-7.8 4.1v18.5a3.4 3.4 0 0 1-3.5 3.4 3.4 3.4 0 0 1-3.4-3.4v-25a3.4 3.4 0 0 1 6.8 0v1.3a14.5 14.5 0 0 1 10.9-5c6.7 0 10 3.6 10 9.9v18.8a3.4 3.4 0 0 1-3.4 3.3zM299.2 49.9c-9.9 0-15.9-7.4-15.9-16.3s6-16.2 15.9-16.2 15.9 7.4 15.9 16.2-6 16.3-15.9 16.3zm0-26.4c-5.7 0-8.8 4.7-8.8 10.1s3.1 10.2 8.8 10.2 8.8-4.7 8.8-10.2-3.2-10-8.8-10zM328 49.9c-5.2 0-8-2.8-8-8V24.3h-2.6a3 3 0 0 1 0-6h2.6v-5.5a3.4 3.4 0 0 1 3.5-3.4 3.4 3.4 0 0 1 3.3 3.4v5.4h3.8a3 3 0 0 1 2.9 3.1 2.9 2.9 0 0 1-2.9 2.9h-3.8v16c0 2.4 1.3 3.6 2.9 3.6l1.4-.2a2.8 2.8 0 0 1 3 2.9c.1 2.2-1.7 3.4-6.1 3.4zM361.6 35.9h-20.3a9.3 9.3 0 0 0 9.7 8.5 13.3 13.3 0 0 0 6.9-2 2.9 2.9 0 0 1 4.3 2.4c0 3.5-7.9 5.1-11.9 5.1-9.3 0-16.2-6.5-16.2-16.3s6.5-16.2 15.7-16.2c7.2 0 12.5 4.4 14.4 11a15 15 0 0 1 .8 4.1 3.3 3.3 0 0 1-3.4 3.4zM349.8 23c-5.6 0-8.3 4.5-8.6 8.2h17.2a8.2 8.2 0 0 0-8.6-8.2zM392.4 46.5a14.1 14.1 0 0 1-9.9 3.5c-9.4 0-16-6.8-16-16.3s6.6-16.2 16-16.2c4.7 0 8.7 1.7 10.4 4.2a2.2 2.2 0 0 1 .4 1.4 3.1 3.1 0 0 1-3.2 2.9 3.2 3.2 0 0 1-2-.6 8.6 8.6 0 0 0-5.4-1.8c-5.6 0-9.3 4.2-9.3 10.1s3.7 10.2 9.3 10.2a8.6 8.6 0 0 0 5.4-1.9 3.3 3.3 0 0 1 2-.6 3.1 3.1 0 0 1 3.3 3 2.6 2.6 0 0 1-1 2.1zM402.5 9.1a4 4 0 1 1-4 4 4 4 0 0 1 4-4zm0 7.4a3.3 3.3 0 0 0 3.3-3.4 3.3 3.3 0 1 0-6.6 0 3.3 3.3 0 0 0 3.3 3.4zm-1.6-5.8h1.8c1.1 0 1.6.4 1.6 1.3a1.2 1.2 0 0 1-1.2 1.3l1.3 2.1h-.8l-1.3-2h-.8v2h-.7zm.7 2.1h.8c.6 0 1.2 0 1.2-.8s-.5-.7-1-.7h-1zM107.1 74.3v-6.5h-2.5v-2.1h2.5V62l2.4-.4v4h4v2.2h-4v6c0 1.6.2 3.2 2 3.2a4 4 0 0 0 2-.6v2.3a5.9 5.9 0 0 1-2.4.5 3.9 3.9 0 0 1-3-1.2 5.2 5.2 0 0 1-1-3.7zM115.5 58.3h2.4v9h.1a6.6 6.6 0 0 1 4.6-2 4.6 4.6 0 0 1 3.5 1.5c.7.8 1.1 1.9 1.1 3.9v8.2h-2.4v-7.7c0-1.5-.2-2.2-.6-2.7a2.5 2.5 0 0 0-2-.9 5.8 5.8 0 0 0-4.2 2.2v9.1h-2.4zM131.9 73c.4 2.6 2.3 4 4.9 4a7.6 7.6 0 0 0 4.6-1.6V78a9.4 9.4 0 0 1-4.8 1.2c-4.1 0-7.2-2.8-7.2-6.9a6.6 6.6 0 0 1 6.6-6.9c3.2 0 6 2.3 6 6.4a8.4 8.4 0 0 1-.1 1.2zm.1-1.9h7.8a3.6 3.6 0 0 0-3.8-3.5 4.1 4.1 0 0 0-4 3.5zM149.6 75.6a9.7 9.7 0 0 0 5.1 1.4c1.8 0 3-.5 3-1.8s-1.9-1.6-4-2-4.5-1.2-4.5-3.8 2.4-4.1 5.5-4.1a10.7 10.7 0 0 1 4.8 1.1v2.4a10.1 10.1 0 0 0-4.9-1.3c-1.7 0-2.9.5-2.9 1.7s1.9 1.5 3.9 1.9 4.6 1.1 4.6 3.9-2.8 4.2-5.6 4.2a11.2 11.2 0 0 1-5-1.1zM172.3 78.3a8.6 8.6 0 0 1-4 .9c-4.2 0-7.2-2.9-7.2-6.9a7 7 0 0 1 7.4-7 8 8 0 0 1 3.6.8v2.5a7 7 0 0 0-3.7-1.1 4.7 4.7 0 0 0-4.8 4.8 4.6 4.6 0 0 0 4.9 4.6 6.2 6.2 0 0 0 3.8-1.3zM175.6 59.4a1.7 1.7 0 1 1-1.7 1.7 1.7 1.7 0 0 1 1.7-1.7zm-1.2 6.3h2.4v13.2h-2.4zM181.2 73c.4 2.6 2.3 4 4.9 4a7.6 7.6 0 0 0 4.6-1.6V78a9.4 9.4 0 0 1-4.8 1.2c-4.1 0-7.2-2.8-7.2-6.9a6.6 6.6 0 0 1 6.6-6.9c3.2 0 6 2.3 6 6.4a8.4 8.4 0 0 1-.1 1.2zm.1-1.9h7.8a3.6 3.6 0 0 0-3.8-3.5 4.1 4.1 0 0 0-4 3.5zM193.5 65.7h2.4v1.7h.1a6.6 6.6 0 0 1 4.6-2 4.6 4.6 0 0 1 3.5 1.5c.7.8 1.1 1.9 1.1 3.9V79h-2.4v-7.8a4.1 4.1 0 0 0-.6-2.7 2.8 2.8 0 0 0-2.1-.9 5.6 5.6 0 0 0-4.2 2.2v9.1h-2.4zM218.3 78.3a8.6 8.6 0 0 1-4 .9c-4.2 0-7.2-2.9-7.2-6.9a7 7 0 0 1 7.4-7 8 8 0 0 1 3.6.8v2.5a7 7 0 0 0-3.7-1.1 4.7 4.7 0 0 0-4.8 4.8 4.6 4.6 0 0 0 4.9 4.6 6.2 6.2 0 0 0 3.8-1.3zM221.9 73c.4 2.6 2.3 4 4.9 4a7.6 7.6 0 0 0 4.6-1.6V78a9.4 9.4 0 0 1-4.8 1.2c-4.1 0-7.2-2.8-7.2-6.9a6.6 6.6 0 0 1 6.6-6.9c3.2 0 6 2.3 6 6.4a8.4 8.4 0 0 1-.1 1.2zm.1-1.9h7.8a3.6 3.6 0 0 0-3.8-3.5 4.1 4.1 0 0 0-4 3.5zM245.4 65.4a6.9 6.9 0 1 1-7 6.9 6.8 6.8 0 0 1 7-6.9zm0 11.7a4.7 4.7 0 1 0-4.6-4.7 4.6 4.6 0 0 0 4.6 4.6zM255.1 67.8H253v-2.1h2.1v-2.6c0-1.7.2-3.1 1.2-4a4.4 4.4 0 0 1 3.1-1.1 7.8 7.8 0 0 1 2 .3v2.2l-1.9-.2c-1.7 0-2 1.1-2 2.5v2.9h3.4v2.2h-3.4v11h-2.4zM267.4 58.3h2.4v20.6h-2.4zM273.6 59.4a1.7 1.7 0 1 1-1.7 1.7 1.7 1.7 0 0 1 1.7-1.7zm-1.2 6.3h2.4v13.2h-2.4zM275.7 65.7h2.6l2.5 6 1.7 4.3h.1l1.8-4.4 2.4-5.8h2.5l-5.6 13.3h-2.4zM291.5 59.4a1.7 1.7 0 1 1-1.7 1.7 1.7 1.7 0 0 1 1.7-1.7zm-1.2 6.3h2.4v13.2h-2.4zM295.2 65.7h2.4v1.7h.1a6.6 6.6 0 0 1 4.6-2 4.6 4.6 0 0 1 3.5 1.5c.7.8 1.1 1.9 1.1 3.9V79h-2.4v-7.8a4.1 4.1 0 0 0-.6-2.7 2.8 2.8 0 0 0-2.1-.9 5.6 5.6 0 0 0-4.2 2.2v9.1h-2.4zM310.4 81.6a7.7 7.7 0 0 0 4.2 1.4c2.5 0 4.2-1.5 4.2-4v-1h-.1a6.6 6.6 0 0 1-3.6 1 6.4 6.4 0 0 1-6.5-6.6 6.7 6.7 0 0 1 6.9-7 7.6 7.6 0 0 1 3.4.8l2.3-.4v13.1c0 3.9-2.6 6.3-6.7 6.3a9.4 9.4 0 0 1-4.2-1zm5.1-4.8a5.6 5.6 0 0 0 3.3-1.1v-7.3a6.8 6.8 0 0 0-3.3-.9 4.7 4.7 0 0 0 0 9.3zM328.6 58.3h2.4v8.1h.1a7 7 0 0 1 3.8-1.1 6.4 6.4 0 0 1 6.5 6.7 6.9 6.9 0 0 1-7 7.1 8.7 8.7 0 0 1-3.3-.7l-2.3.4zm5.7 18.8c2.7 0 4.5-2.1 4.5-4.9s-1.7-4.7-4.3-4.7a5.5 5.5 0 0 0-3.5 1.2v7.5a7.1 7.1 0 0 0 3.3.9zM344.4 73c.4 2.6 2.3 4 4.9 4a7.6 7.6 0 0 0 4.6-1.6V78a9.4 9.4 0 0 1-4.8 1.2c-4.1 0-7.2-2.8-7.2-6.9a6.6 6.6 0 0 1 6.6-6.9c3.2 0 6 2.3 6 6.4a8.2 8.2 0 0 1-.1 1.2zm.1-1.9h7.8a3.6 3.6 0 0 0-3.8-3.5 4.1 4.1 0 0 0-4.1 3.5zM357.1 74.3v-6.5h-2.5v-2.1h2.5V62l2.4-.4v4h4v2.2h-4v6c0 1.6.2 3.2 2 3.2a4 4 0 0 0 2-.6v2.3a5.9 5.9 0 0 1-2.4.5 3.9 3.9 0 0 1-3-1.2 5.2 5.2 0 0 1-1-3.7z"/><path class="cls-1" d="M365.8 74.3v-6.5h-2.5v-2.1h2.5V62l2.4-.4v4h4v2.2h-4v6c0 1.6.2 3.2 2 3.2a4 4 0 0 0 2-.6v2.3a5.9 5.9 0 0 1-2.4.5 3.9 3.9 0 0 1-3-1.2 5.2 5.2 0 0 1-1-3.7z"/><path class="cls-1" d="M374.7 73c.4 2.6 2.3 4 4.9 4a7.6 7.6 0 0 0 4.6-1.6V78a9.4 9.4 0 0 1-4.8 1.2c-4.1 0-7.2-2.8-7.2-6.9a6.6 6.6 0 0 1 6.6-6.9c3.2 0 6 2.3 6 6.4a8.2 8.2 0 0 1-.1 1.2zm.1-1.9h7.8a3.6 3.6 0 0 0-3.8-3.5 4.1 4.1 0 0 0-4 3.5zM386.7 65.7h2.4v1.9h.1a4.8 4.8 0 0 1 3.9-2.1h.9v2.4h-1a4.3 4.3 0 0 0-3.9 2.3v8.6h-2.4z"/></g></g></svg>